<svg width="100" height="100" xmlns="http://www.w3.org/2000/svg">

 <g>
  <title>Layer 1</title>
  <g transform="rotate(90 50 50)">
   <path fill="#f58225" d="m50,0c-27.5685,0 -50,22.4315 -50,50c0,27.5685 22.4315,50 50,50c27.5685,0 50,-22.4315 50,-50c0,-27.5685 -22.4296,-50 -50,-50zm22.3065,49.3676l-20.1787,20.1731c-13.8982,13.8982 -34.3963,-7.1 -20.7472,-20.75l20.1777,-20.1731c7.8089,-7.8201 19.6574,4.0278 11.8445,11.8472l-20.1741,20.175c-1.9621,1.9621 -4.9078,-0.9845 -2.9456,-2.9455l20.1741,-20.175c3.9099,-3.9099 -2.0421,-9.8713 -5.9534,-5.9546l-20.1778,20.1732c-9.7741,9.7731 5.0858,24.6259 14.8556,14.8574l20.1777,-20.1732c1.8436,-1.8442 4.7925,1.1024 2.9467,2.9456l0.0005,-0.0001z"/>
  </g>
 </g>
</svg>